D:\Gebruiker\Documents\~school~\WTK\thesis\model\3dpredictsim_Lars\Results\Test_Lars\Test1_alphaCst_pas_GRF.mot
nRows=12
nColumns=19

name D:\Gebruiker\Documents\~school~\WTK\thesis\model\3dpredictsim_Lars\Results\Test_Lars\Test1_alphaCst_pas_GRF.mot
datacolumns 19
datarows 12
range 0.5530816480 0.6747596106
endheader
time 	ground_force_vx	ground_force_vy	ground_force_vz	ground_force_px	ground_force_py	ground_force_pz	1_ground_force_vx	1_ground_force_vy	1_ground_force_vz	1_ground_force_px	1_ground_force_py	1_ground_force_pz	ground_torque_x	ground_torque_y	ground_torque_z	1_ground_torque_x	1_ground_torque_y	1_ground_torque_z
        0.5530816480	       99.7812918115	      564.8764128098	        0.8562632278	        0.3898625302	        0.0000000000	        0.0387583656	      -64.1692063897	       50.3791808593	      -20.0802541741	        0.8755099800	        0.0000000000	       -0.0398214963	        0.0000000000	        0.0000000000	        0.0000000000	        0.0000000000	        0.0000000000	        0.0000000000	
        0.5641432810	       88.5370830110	      495.3525085947	        3.7847032314	        0.3923558512	        0.0000000000	        0.0382316090	     -108.2336705272	      117.1635385620	      -55.5433951819	        0.8834252985	        0.0000000000	       -0.0375742833	        0.0000000000	        0.0000000000	        0.0000000000	        0.0000000000	        0.0000000000	        0.0000000000	
        0.5752049140	       74.4762430910	      412.0702685212	        5.1002419821	        0.3960473219	        0.0000000000	        0.0371828605	      -39.1645241406	      236.9709117036	      -32.8160062628	        0.8887559740	        0.0000000000	       -0.0352706223	        0.0000000000	        0.0000000000	        0.0000000000	        0.0000000000	        0.0000000000	        0.0000000000	
        0.5862665469	       59.2736855864	      329.1013276604	        3.3377146860	        0.4013540270	        0.0000000000	        0.0353352590	      -29.7763805537	      367.5075710463	       -3.4722941005	        0.8910132378	        0.0000000000	       -0.0345698188	        0.0000000000	        0.0000000000	        0.0000000000	        0.0000000000	        0.0000000000	        0.0000000000	
        0.5973281799	       35.9151382752	      240.2352895879	        4.3695524531	        0.4100128854	        0.0000000000	        0.0318736799	      -47.5628891674	      489.8773753349	        1.6689841495	        0.8941869063	        0.0000000000	       -0.0352414296	        0.0000000000	        0.0000000000	        0.0000000000	        0.0000000000	        0.0000000000	        0.0000000000	
        0.6083898128	       14.2582959167	      158.3503816179	        9.2721956283	        0.4245134333	        0.0000000000	        0.0252770414	      -76.7182020970	      629.0045540717	        6.3497854505	        0.9014744620	        0.0000000000	       -0.0375528754	        0.0000000000	        0.0000000000	        0.0000000000	        0.0000000000	        0.0000000000	        0.0000000000	
        0.6194514458	        3.2158521765	      127.3097227925	       11.8959205846	        0.4285793042	        0.0000000000	        0.0232163513	      -96.1672351382	      734.4925314815	        9.5867502261	        0.9074582565	        0.0000000000	       -0.0393706811	        0.0000000000	        0.0000000000	        0.0000000000	        0.0000000000	        0.0000000000	        0.0000000000	
        0.6305130788	        1.1446720688	       97.1519164450	       13.0389231473	        0.4291371591	        0.0000000000	        0.0233387909	     -100.8460333815	      781.1268269800	       11.4618382223	        0.9118161571	        0.0000000000	       -0.0405777969	        0.0000000000	        0.0000000000	        0.0000000000	        0.0000000000	        0.0000000000	        0.0000000000	
        0.6415747117	       -3.2175536474	       61.8347266953	       11.7164384590	        0.4295716251	        0.0000000000	        0.0233679818	      -96.9817223974	      786.4077418646	       11.6458268814	        0.9151140503	        0.0000000000	       -0.0413807088	        0.0000000000	        0.0000000000	        0.0000000000	        0.0000000000	        0.0000000000	        0.0000000000	
        0.6526363447	       -8.4370090933	       24.3721697781	        5.4622780703	        0.4291648423	        0.0000000000	        0.0229756043	      -90.0486024009	      775.8924648140	       11.7503390975	        0.9179296298	        0.0000000000	       -0.0418972114	        0.0000000000	        0.0000000000	        0.0000000000	        0.0000000000	        0.0000000000	        0.0000000000	
        0.6636979776	        0.0867360021	       -0.0845052436	       -0.0023092976	        0.0000000000	        0.0000000000	        0.0000000000	      -81.0404325267	      764.2206548336	       12.6351479915	        0.9209097899	        0.0000000000	       -0.0421976164	        0.0000000000	        0.0000000000	        0.0000000000	        0.0000000000	        0.0000000000	        0.0000000000	
        0.6747596106	        0.0002751187	       -0.0002197865	        0.0000127134	        0.0000000000	        0.0000000000	        0.0000000000	      -70.1474389927	      745.2506295586	       13.6699118535	        0.9240692493	        0.0000000000	       -0.0423794753	        0.0000000000	        0.0000000000	        0.0000000000	        0.0000000000	        0.0000000000	        0.0000000000	
